<?xml version="1.0" encoding="UTF-8"?>
<svg id="Layer_2" data-name="Layer 2" xmlns="http://www.w3.org/2000/svg" viewBox="0 0 343.57 301.56">
  <defs>
    <style>
      .cls-1 {
        fill: #908534;
      }
    </style>
  </defs>
  <g id="Layer_1-2" data-name="Layer 1">
    <g>
      <g>
        <path class="cls-1" d="M27.47,291.96h-5.32v-6.89h-4.21v6.89h-6.48v-8.79h-4.24c-7.22,0-7.22,4.65-7.22,8.79v3.58h31.68v-10.47h-4.21v6.89ZM7.22,291.96h-3.01c0-4.14.02-5.21,3.01-5.21v5.21Z"/>
        <path class="cls-1" d="M50.78,291.96h-5.32v-8.79h-4.24c-7.22,0-7.22,4.65-7.22,8.79v3.58h7.22c0,1.7,0,2.44-4.63,2.44l1.16,3.58c7.71,0,7.71-4.31,7.71-6.02h9.53v-10.47h-4.21v6.89ZM41.22,291.96h-3.01c0-4.14.02-5.21,3.01-5.21v5.21Z"/>
        <path class="cls-1" d="M88.98,291.96h-5.32v-8.79h-4.24c-7.22,0-7.22,5.07-7.22,8.79h-10.69v-13.47h-4.21v17.05h35.9v-17.05h-4.21v13.47ZM79.43,291.96h-3.01c0-3.73.02-5.21,3.01-5.21v5.21Z"/>
        <rect class="cls-1" x="95.51" y="278.49" width="4.21" height="17.05"/>
        <path class="cls-1" d="M125.39,291.94h-13.89c0-2.19,0-5.19,4.63-5.19l-1.16-3.58c-7.71,0-7.71,6.58-7.71,8.77v3.6h18.43c2.43,0,3.93-1.56,3.93-3.68v-6.8h-4.24v6.87Z"/>
        <rect class="cls-1" x="131.93" y="278.49" width="4.21" height="17.05"/>
        <path class="cls-1" d="M138.46,295.54c0,1.7,0,2.44-4.63,2.44l1.16,3.58c7.71,0,7.71-4.31,7.71-6.02v-10.47h-4.24v10.47Z"/>
        <path class="cls-1" d="M200.95,291.96h-2.31v-7.57h-4.21v7.57h-2.31v-6.36h-4.21v6.36h-5.32v-6.89h-4.21v6.89h-6.55v-8.79h-4.21v8.79h-2.31v-7.57h-4.21v7.57h-2.31v-6.36h-4.21v6.36h-5.32v-13.47h-4.21v17.05h56.24c2.43,0,3.91-1.56,3.91-3.68v-8.7h-4.21v8.79Z"/>
        <polygon class="cls-1" points="217.89 291.96 207.47 291.96 207.93 295.54 222.1 295.54 222.1 278.49 217.89 278.49 217.89 291.96"/>
        <rect class="cls-1" x="211.15" y="278.49" width="4.21" height="12.25"/>
        <rect class="cls-1" x="224.41" y="278.49" width="4.21" height="17.05"/>
        <path class="cls-1" d="M230.94,291.96v3.58h7.22c0,1.7,0,2.44-4.63,2.44l1.16,3.58c7.71,0,7.71-4.31,7.71-6.02v-12.37h-4.24c-7.22,0-7.22,4.65-7.22,8.79ZM238.16,291.96h-3.01c0-4.14.02-5.21,3.01-5.21v5.21Z"/>
        <path class="cls-1" d="M249.94,291.96v3.58h7.55c2.45,0,3.91-1.53,3.91-3.68v-8.7h-4.24c-7.22,0-7.22,4.65-7.22,8.79ZM257.16,291.96h-3.01c0-4.14.02-5.21,3.01-5.21v5.21Z"/>
        <path class="cls-1" d="M277.48,283.17h-4.24v8.79h-5.32v-13.47h-4.21v17.05h20.99v-3.58c0-4.14,0-8.79-7.22-8.79ZM277.48,291.96v-5.21c2.99,0,3.01,1.07,3.01,5.21h-3.01Z"/>
        <path class="cls-1" d="M339.36,278.49v13.47h-5.32v-13.47h-4.21v13.47h-5.32c0-4.14,0-8.79-7.22-8.79h-4.24v8.79h-5.32c0-1.29,0-8.79-11.18-8.79v3.6c6.94,0,6.94,3.9,6.94,5.19h-12.27v-13.47h-4.21v17.05h56.56v-17.05h-4.21ZM317.28,291.96v-5.21c2.99,0,3.01,1.07,3.01,5.21h-3.01Z"/>
        <path class="cls-1" d="M34.6,240.05h1.87v15.3h92.03v-27.57h-6.81v21.78h-8.61v-11.15h-6.81v11.15h-8.61v-14.22h-6.85c-11.68,0-11.68,8.19-11.68,14.22h-8.61c0-6.7,0-14.22-11.68-14.22h-6.85v14.22h-8.62v-15.38h-8.76c-5.2,0-8.68,3.15-8.68,7.88v7.45H7.2c0-3.55,0-8.51,7.49-8.51h6.25l-2.5-5.75h-5.98v.02c-12.08.22-12.1,10.73-12.1,14.24v5.83h32.41l-.04-.04v-13.24c0-1.22.75-2.01,1.87-2.01ZM90.8,241.13v8.43h-4.87c0-6.03.04-8.43,4.87-8.43ZM58.82,241.13c4.83,0,4.87,1.73,4.87,8.43h-4.87v-8.43Z"/>
        <rect class="cls-1" x="132.24" y="227.78" width="6.81" height="27.57"/>
        <path class="cls-1" d="M185.28,255.35h36.47c3.93,0,6.32-2.52,6.32-5.95v-14.06h-6.81v14.22h-3.74v-12.25h-6.81v12.25h-3.74v-10.28h-6.81v10.28h-19.17c0-1.24,0-3.96,2.35-5.98,1.21-1.04,2.77-1.51,4.33-1.51h6.13v-5.7h-6.83c-2.77,0-5.54.76-7.79,2.46-4.99,3.75-5,9.37-5,10.73h-7.43c0-1.36,0-6.98-5-10.73-2.25-1.69-5.02-2.46-7.79-2.46h-6.58v5.7h5.88c1.56,0,3.12.47,4.33,1.51,2.34,2.02,2.35,4.75,2.35,5.98h-12.56v5.79h37.91Z"/>
        <path class="cls-1" d="M294.5,265.08c12.46,0,12.46-6.97,12.46-9.73h30.21c3.93,0,6.33-2.52,6.33-5.95v-14.06h-6.81v14.22h-3.74v-12.25h-6.81v12.25h-3.74v-10.28h-6.81v10.28h-8.61v-11.15h-6.85v16.94c0,2.76,0,3.94-7.49,3.94l1.87,5.79Z"/>
        <path class="cls-1" d="M258.2,255.35h37.71v-5.79c0-1.36,0-6.98-5-10.73-2.25-1.69-5.02-2.46-7.79-2.46h-10.55l9.87-8.28-3.41-4.57-14.64,12.29v6.26h18.02c1.56,0,3.12.47,4.33,1.5,2.34,2.02,2.35,4.75,2.35,5.98h-30.9v-14.22h-6.85c-11.68,0-11.68,7.52-11.68,14.22v5.79h18.53ZM251.35,249.56h-4.87c0-6.7.04-8.43,4.87-8.43v8.43Z"/>
        <polygon class="cls-1" points="332.54 232.56 337.42 227.43 332.54 222.3 327.67 227.43 332.54 232.56"/>
        <polygon class="cls-1" points="324.19 227.43 319.32 222.3 314.45 227.43 319.32 232.56 324.19 227.43"/>
        <polygon class="cls-1" points="330.81 220.47 325.93 215.34 321.06 220.47 325.93 225.6 330.81 220.47"/>
        <polygon class="cls-1" points="259.22 227.43 254.34 222.3 249.47 227.43 254.34 232.56 259.22 227.43"/>
        <polygon class="cls-1" points="114.83 262.44 109.96 257.32 105.08 262.44 109.96 267.57 114.83 262.44"/>
        <polygon class="cls-1" points="249.42 227.43 244.54 222.3 239.67 227.43 244.54 232.56 249.42 227.43"/>
        <polygon class="cls-1" points="25.87 262.5 21 257.37 16.13 262.5 21 267.63 25.87 262.5"/>
        <polygon class="cls-1" points="16.08 262.5 11.2 257.37 6.33 262.5 11.2 267.63 16.08 262.5"/>
        <polygon class="cls-1" points="100.57 228.51 95.7 223.38 90.82 228.51 95.7 233.64 100.57 228.51"/>
        <polygon class="cls-1" points="90.77 228.51 85.9 223.38 81.02 228.51 85.9 233.64 90.77 228.51"/>
        <polygon class="cls-1" points="254.29 276.61 252 279.03 254.29 281.44 256.58 279.04 258.86 281.44 261.16 279.03 258.86 276.61 256.58 279.01 254.29 276.61"/>
        <polygon class="cls-1" points="177.99 277.78 175.7 280.2 177.99 282.62 180.28 280.21 182.56 282.62 184.86 280.2 182.56 277.78 180.28 280.18 177.99 277.78"/>
        <polygon class="cls-1" points="118.23 277.78 115.93 280.2 118.23 282.62 120.51 280.21 122.79 282.62 125.09 280.2 122.79 277.78 120.51 280.18 118.23 277.78"/>
        <polygon class="cls-1" points="50.39 281.27 52.69 283.69 54.99 281.27 52.69 278.85 50.39 281.27"/>
        <polygon class="cls-1" points="27.3 281.27 29.6 283.69 31.9 281.27 29.6 278.85 27.3 281.27"/>
        <polygon class="cls-1" points="76.23 277.78 73.93 280.2 76.23 282.62 78.51 280.21 80.79 282.62 83.09 280.2 80.79 277.78 78.51 280.18 76.23 277.78"/>
        <polygon class="cls-1" points="4.04 277.78 1.75 280.2 4.04 282.62 6.33 280.21 8.61 282.62 10.91 280.2 8.61 277.78 6.33 280.18 4.04 277.78"/>
        <polygon class="cls-1" points="19.73 298.57 17.44 296.17 15.14 298.58 17.44 301 19.73 298.6 22.01 301 24.31 298.58 22.01 296.17 19.73 298.57"/>
        <polygon class="cls-1" points="167.56 280.2 165.26 277.78 162.97 280.2 165.26 282.62 167.56 280.2"/>
        <polygon class="cls-1" points="164.76 277.25 162.46 274.83 160.16 277.25 162.46 279.67 164.76 277.25"/>
        <polygon class="cls-1" points="157.36 280.2 159.66 282.62 161.95 280.2 159.66 277.78 157.36 280.2"/>
      </g>
      <g>
        <g>
          <path class="cls-1" d="M192.56,179.52c-1.48,0-2.68-1.26-2.68-2.82V56.01h50.93v90.06c0,1.56-1.2,2.82-2.68,2.82s-2.68-1.26-2.68-2.82V61.66h-40.19v115.05c0,1.56-1.2,2.82-2.68,2.82Z"/>
          <path class="cls-1" d="M221.19,65.19h-22.34v93.2l22.34-9.06v.02l10.78-4.37h0v-38.63l-6.38-2.1,6.38-5.04v-34.02h-10.78ZM221.19,137.94l-11.56,4.77v-32.59l11.56,1.59v26.23ZM221.19,97.52l-5.78,3.78-5.78-1.68v-23.09h11.56v20.99Z"/>
        </g>
        <g>
          <path class="cls-1" d="M151.01,179.52c-1.48,0-2.68-1.26-2.68-2.82V61.66h-40.19v84.41c0,1.56-1.2,2.82-2.68,2.82s-2.68-1.26-2.68-2.82V56.01h50.93v120.69c0,1.56-1.2,2.82-2.68,2.82Z"/>
          <polygon class="cls-1" points="144.6 111.42 142.22 109.56 122.03 93.83 122.03 76.54 133.82 76.54 133.82 88.91 144.59 97.3 144.59 65.65 144.55 65.65 144.55 65.2 111.88 65.2 111.88 65.65 111.25 65.65 111.25 99.16 111.25 99.53 111.91 100.04 133.82 117.13 133.82 141.59 122.02 136.55 122.02 122.07 111.25 113.66 111.25 144.2 115.22 145.89 136.87 155.13 136.88 155.12 144.6 158.4 144.6 111.42"/>
        </g>
      </g>
      <g>
        <path class="cls-1" d="M247.06,30.74c-1.29-.71-2.95-.13-3.62,1.23-2.03,4.13-6.63,6.85-11.67,6.85s-9.82-2.84-11.73-7.04h12.4c1.47,0,2.7-1.23,2.7-2.78s-1.23-2.84-2.7-2.84h-120.1c-1.48,0-2.64,1.23-2.64,2.84s1.17,2.78,2.64,2.78h11.17c-1.9,4.2-6.45,7.04-11.73,7.04s-9.64-2.72-11.67-6.85c-.67-1.36-2.33-1.94-3.62-1.23-1.35.71-1.84,2.45-1.17,3.81,2.95,6.01,9.39,9.95,16.45,9.95,8.29,0,15.41-5.3,17.5-12.73h23.27v.02h-.58v12.33h-7.49c-1.47,0-2.7,1.23-2.7,2.78s1.23,2.84,2.7,2.84h14.64v144.01c0,1.55,1.23,2.78,2.7,2.78s2.7-1.23,2.7-2.78V49.73h4.42v161.91c0,1.55,1.17,2.78,2.64,2.78s2.7-1.23,2.7-2.78V49.73h4.42v144.01c0,1.55,1.23,2.78,2.7,2.78s2.7-1.23,2.7-2.78V49.73h14.64c1.47,0,2.7-1.23,2.7-2.84s-1.23-2.78-2.7-2.78h-7.49v-12.33h.58v-.02h22.41c2.09,7.43,9.21,12.73,17.5,12.73,7.06,0,13.51-3.94,16.45-9.95.68-1.36.18-3.1-1.17-3.81ZM168.35,44.1h-10.98v-12.31h11.59v12.31h-.61ZM185.9,44.1h-11.59v-12.31h11.59v12.31Z"/>
        <path class="cls-1" d="M171.62,0c-6.4,0-11.6,5.48-11.6,12.21s5.2,12.21,11.6,12.21,11.6-5.48,11.6-12.21-5.2-12.21-11.6-12.21ZM171.62,18.77c-3.44,0-6.23-2.95-6.23-6.56s2.8-6.56,6.23-6.56,6.23,2.95,6.23,6.56-2.8,6.56-6.23,6.56Z"/>
      </g>
    </g>
  </g>
</svg>