<?xml version="1.0" encoding="UTF-8"?>
<svg id="Layer_1" data-name="Layer 1" xmlns="http://www.w3.org/2000/svg" viewBox="0 0 595.28 841.89">
  <defs>
    <style>
      .cls-1 {
        fill: #8f7f38;
      }
    </style>
  </defs>
  <g>
    <path class="cls-1" d="M65.3,637.34h-8.58v-10.56h-6.79v10.56h-10.45v-13.47h-6.83c-11.64,0-11.64,7.13-11.64,13.47v5.49h51.09v-16.05h-6.79v10.56ZM32.64,637.34h-4.85c0-6.34.04-7.99,4.85-7.99v7.99Z"/>
    <path class="cls-1" d="M102.87,637.34h-8.58v-13.47h-6.83c-11.64,0-11.64,7.13-11.64,13.47v5.49h11.64c0,2.61,0,3.73-7.46,3.73l1.87,5.49c12.43,0,12.43-6.61,12.43-9.22h15.37v-16.05h-6.79v10.56ZM87.46,637.34h-4.85c0-6.34.04-7.99,4.85-7.99v7.99Z"/>
    <path class="cls-1" d="M164.48,637.34h-8.58v-13.47h-6.83c-11.64,0-11.64,7.76-11.64,13.47h-17.24v-20.64h-6.79v26.13h57.88v-26.13h-6.79v20.64ZM149.07,637.34h-4.85c0-5.71.04-7.99,4.85-7.99v7.99Z"/>
    <rect class="cls-1" x="175" y="616.7" width="6.79" height="26.13"/>
    <path class="cls-1" d="M223.19,637.31h-22.39c0-3.36,0-7.95,7.46-7.95l-1.87-5.49c-12.43,0-12.43,10.08-12.43,13.44v5.52h29.71c3.92,0,6.34-2.39,6.34-5.64v-10.41h-6.83v10.53Z"/>
    <rect class="cls-1" x="233.74" y="616.7" width="6.79" height="26.13"/>
    <path class="cls-1" d="M244.26,642.83c0,2.61,0,3.73-7.47,3.73l1.87,5.49c12.43,0,12.43-6.61,12.43-9.22v-16.05h-6.83v16.05Z"/>
    <path class="cls-1" d="M345.02,637.34h-3.73v-11.61h-6.79v11.61h-3.73v-9.74h-6.79v9.74h-8.58v-10.56h-6.79v10.56h-10.55v-13.47h-6.79v13.47h-3.73v-11.61h-6.79v11.61h-3.73v-9.74h-6.79v9.74h-8.58v-20.64h-6.79v26.13h90.68c3.92,0,6.31-2.39,6.31-5.64v-13.33h-6.79v13.47Z"/>
    <polygon class="cls-1" points="372.34 637.34 355.54 637.34 356.29 642.83 379.13 642.83 379.13 616.7 372.34 616.7 372.34 637.34"/>
    <rect class="cls-1" x="361.48" y="616.7" width="6.79" height="18.77"/>
    <rect class="cls-1" x="382.86" y="616.7" width="6.79" height="26.13"/>
    <path class="cls-1" d="M393.38,637.34v5.49h11.64c0,2.61,0,3.73-7.46,3.73l1.87,5.49c12.43,0,12.43-6.61,12.43-9.22v-18.96h-6.83c-11.64,0-11.64,7.13-11.64,13.47ZM405.02,637.34h-4.85c0-6.34.04-7.99,4.85-7.99v7.99Z"/>
    <path class="cls-1" d="M424.02,637.34v5.49h12.17c3.96,0,6.31-2.35,6.31-5.64v-13.33h-6.83c-11.64,0-11.64,7.13-11.64,13.47ZM435.66,637.34h-4.85c0-6.34.04-7.99,4.85-7.99v7.99Z"/>
    <path class="cls-1" d="M468.42,623.87h-6.83v13.47h-8.58v-20.64h-6.79v26.13h33.85v-5.49c0-6.34,0-13.47-11.65-13.47ZM468.42,637.34v-7.99c4.81,0,4.85,1.64,4.85,7.99h-4.85Z"/>
    <path class="cls-1" d="M568.21,616.7v20.64h-8.58v-20.64h-6.79v20.64h-8.58c0-6.34,0-13.47-11.65-13.47h-6.83v13.47h-8.58c0-1.98,0-13.47-18.03-13.47v5.52c11.2,0,11.2,5.97,11.2,7.95h-19.78v-20.64h-6.79v26.13h91.2v-26.13h-6.79ZM532.61,637.34v-7.99c4.81,0,4.85,1.64,4.85,7.99h-4.85Z"/>
    <path class="cls-1" d="M76.79,557.8h3.02v23.44h148.39v-42.25h-10.99v33.38h-13.88v-17.08h-10.99v17.08h-13.89v-21.79h-11.05c-18.83,0-18.83,12.55-18.83,21.79h-13.89c0-10.26,0-21.79-18.83-21.79h-11.05v21.79h-13.9v-23.56h-14.12c-8.39,0-14,4.83-14,12.07v11.41h-30.18c0-5.43,0-13.04,12.07-13.04h10.08l-4.03-8.82h-9.65v.03c-19.48.33-19.52,16.44-19.52,21.82v8.93h52.27l-.06-.06v-20.28c0-1.87,1.21-3.08,3.02-3.08ZM167.41,559.45v12.92h-7.85c0-9.23.06-12.92,7.85-12.92ZM115.85,559.45c7.79,0,7.85,2.66,7.85,12.92h-7.85v-12.92Z"/>
    <rect class="cls-1" x="234.24" y="538.99" width="10.98" height="42.25"/>
    <path class="cls-1" d="M319.76,581.24h58.81c6.34,0,10.2-3.86,10.2-9.11v-21.55h-10.98v21.79h-6.04v-18.77h-10.98v18.77h-6.03v-15.75h-10.99v15.75h-30.91c0-1.9.02-6.08,3.79-9.17,1.94-1.59,4.46-2.31,6.98-2.31h9.88v-8.73h-11.01c-4.47,0-8.93,1.17-12.57,3.77-8.04,5.74-8.06,14.35-8.06,16.44h-11.98c0-2.08-.02-10.69-8.06-16.44-3.64-2.6-8.1-3.77-12.57-3.77h-10.62v8.73h9.49c2.51,0,5.03.72,6.97,2.31,3.78,3.09,3.79,7.27,3.79,9.17h-20.26v8.87h61.13Z"/>
    <path class="cls-1" d="M495.87,596.15c20.1,0,20.1-10.68,20.1-14.91h48.71c6.34,0,10.2-3.86,10.2-9.11v-21.55h-10.98v21.79h-6.04v-18.77h-10.98v18.77h-6.03v-15.75h-10.99v15.75h-13.88v-17.08h-11.05v25.95c0,4.23,0,6.03-12.07,6.03l3.02,8.87Z"/>
    <path class="cls-1" d="M437.34,581.24h60.8v-8.87c0-2.08-.01-10.69-8.06-16.44-3.64-2.6-8.1-3.77-12.57-3.77h-17.02l15.92-12.69-5.49-7-23.6,18.83v9.59h29.06c2.51,0,5.03.71,6.97,2.31,3.78,3.09,3.79,7.27,3.79,9.17h-49.82v-21.79h-11.05c-18.83,0-18.83,11.53-18.83,21.79v8.87h29.88ZM426.29,572.37h-7.85c0-10.26.06-12.92,7.85-12.92v12.92Z"/>
    <rect class="cls-1" x="551.66" y="532.9" width="11.11" height="11.11" transform="translate(-217.54 551.72) rotate(-45)"/>
    <rect class="cls-1" x="530.34" y="532.9" width="11.11" height="11.11" transform="translate(-223.78 536.65) rotate(-45)"/>
    <rect class="cls-1" x="541" y="522.24" width="11.11" height="11.11" transform="translate(-213.12 541.06) rotate(-45)"/>
    <rect class="cls-1" x="425.56" y="532.9" width="11.11" height="11.11" transform="translate(-254.47 462.58) rotate(-45)"/>
    <rect class="cls-1" x="192.75" y="586.55" width="11.11" height="11.11" transform="translate(-360.61 313.66) rotate(-45)"/>
    <rect class="cls-1" x="409.76" y="532.9" width="11.11" height="11.11" transform="translate(-259.1 451.41) rotate(-45)"/>
    <rect class="cls-1" x="49.31" y="586.63" width="11.11" height="11.11" transform="translate(-402.69 212.26) rotate(-45)"/>
    <rect class="cls-1" x="33.5" y="586.63" width="11.11" height="11.11" transform="translate(-407.3 201.07) rotate(-45)"/>
    <rect class="cls-1" x="169.75" y="534.56" width="11.11" height="11.11" transform="translate(-330.58 282.17) rotate(-45)"/>
    <rect class="cls-1" x="153.95" y="534.56" width="11.11" height="11.11" transform="translate(-335.2 270.99) rotate(-45)"/>
    <polygon class="cls-1" points="431.05 613.82 427.34 617.52 431.05 621.22 434.73 617.54 438.41 621.22 442.11 617.52 438.41 613.82 434.73 617.5 431.05 613.82"/>
    <polygon class="cls-1" points="308.01 615.61 304.31 619.32 308.01 623.02 311.69 619.34 315.38 623.02 319.08 619.32 315.38 615.61 311.69 619.29 308.01 615.61"/>
    <polygon class="cls-1" points="211.64 615.61 207.93 619.32 211.64 623.02 215.32 619.34 219 623.02 222.71 619.32 219 615.61 215.32 619.29 211.64 615.61"/>
    <rect class="cls-1" x="103.34" y="618.34" width="5.24" height="5.24" transform="translate(-408.06 256.82) rotate(-45)"/>
    <rect class="cls-1" x="66.11" y="618.34" width="5.24" height="5.24" transform="translate(-418.94 230.46) rotate(-45)"/>
    <polygon class="cls-1" points="143.91 615.61 140.21 619.32 143.91 623.02 147.6 619.34 151.28 623.02 154.98 619.32 151.28 615.61 147.6 619.29 143.91 615.61"/>
    <polygon class="cls-1" points="27.52 615.61 23.82 619.32 27.52 623.02 31.2 619.34 34.89 623.02 38.59 619.32 34.89 615.61 31.2 619.29 27.52 615.61"/>
    <polygon class="cls-1" points="52.81 647.47 49.12 643.79 45.42 647.49 49.12 651.2 52.81 647.51 56.49 651.2 60.19 647.49 56.49 643.79 52.81 647.47"/>
    <rect class="cls-1" x="284.87" y="616.7" width="5.24" height="5.24" transform="translate(-353.73 384.7) rotate(-45)"/>
    <rect class="cls-1" x="280.34" y="612.18" width="5.24" height="5.24" transform="translate(-351.84 380.13) rotate(-45)"/>
    <rect class="cls-1" x="275.82" y="616.7" width="5.24" height="5.24" transform="translate(-356.36 378.26) rotate(-45)"/>
  </g>
  <g>
    <g>
      <path class="cls-1" d="M331.5,465.05c-2.39,0-4.33-1.94-4.33-4.33v-184.94h82.12v138c0,2.39-1.94,4.33-4.33,4.33s-4.33-1.94-4.33-4.33v-129.35h-64.81v176.29c0,2.39-1.94,4.33-4.33,4.33Z"/>
      <path class="cls-1" d="M377.66,289.85h-36.02v142.82l36.02-13.88v.02l17.38-6.7v-59.2l-10.28-3.21,10.28-7.72v-52.13h-17.38ZM377.66,401.32l-18.65,7.31v-49.94l18.65,2.44v40.19ZM377.66,339.39l-9.32,5.79-9.32-2.57v-35.38h18.65v32.17Z"/>
    </g>
    <g>
      <path class="cls-1" d="M264.5,465.05c-2.39,0-4.33-1.94-4.33-4.33v-176.29h-64.81v129.35c0,2.39-1.94,4.33-4.33,4.33s-4.33-1.94-4.33-4.33v-138h82.12v184.94c0,2.39-1.94,4.33-4.33,4.33Z"/>
      <polygon class="cls-1" points="254.16 360.68 250.33 357.84 217.77 333.73 217.77 307.24 236.78 307.24 236.78 326.19 254.15 339.06 254.15 290.55 254.09 290.55 254.09 289.86 201.4 289.86 201.4 290.55 200.39 290.55 200.39 341.9 200.39 342.46 201.46 343.25 236.78 369.44 236.78 406.92 217.76 399.2 217.76 377 200.39 364.12 200.39 410.92 206.79 413.5 241.7 427.66 241.71 427.65 254.16 432.67 254.16 360.68"/>
    </g>
  </g>
  <g>
    <path class="cls-1" d="M419.38,237.06c-2.08-1.09-4.75-.2-5.84,1.88-3.27,6.33-10.69,10.5-18.81,10.5s-15.84-4.36-18.91-10.79h20c2.38,0,4.36-1.88,4.36-4.25s-1.98-4.36-4.36-4.36h-193.65c-2.38,0-4.26,1.88-4.26,4.36s1.88,4.25,4.26,4.25h18.02c-3.07,6.43-10.39,10.79-18.91,10.79s-15.54-4.16-18.81-10.5c-1.09-2.08-3.76-2.97-5.84-1.88-2.18,1.09-2.97,3.76-1.88,5.84,4.75,9.2,15.14,15.25,26.53,15.25,13.36,0,24.85-8.12,28.22-19.51h37.52v.02h-.94v18.89h-12.08c-2.38,0-4.36,1.88-4.36,4.26s1.98,4.36,4.36,4.36h23.61v220.68c0,2.37,1.98,4.25,4.36,4.25s4.36-1.88,4.36-4.25v-220.68h7.13v248.11c0,2.37,1.88,4.25,4.26,4.25s4.36-1.88,4.36-4.25v-248.11h7.13v220.68c0,2.37,1.98,4.25,4.36,4.25s4.36-1.88,4.36-4.25v-220.68h23.61c2.38,0,4.36-1.88,4.36-4.36s-1.98-4.26-4.36-4.26h-12.08v-18.89h.94v-.02h36.14c3.37,11.39,14.85,19.51,28.22,19.51,11.39,0,21.78-6.04,26.53-15.25,1.09-2.08.3-4.75-1.88-5.84ZM292.46,257.53h-17.71v-18.87h18.7v18.87h-.99ZM320.76,257.53h-18.7v-18.87h18.7v18.87Z"/>
    <path class="cls-1" d="M297.73,189.95c-10.31,0-18.7,8.39-18.7,18.71s8.39,18.71,18.7,18.71,18.71-8.39,18.71-18.71-8.39-18.71-18.71-18.71ZM297.73,218.71c-5.54,0-10.05-4.52-10.05-10.06s4.51-10.05,10.05-10.05,10.05,4.52,10.05,10.05-4.51,10.06-10.05,10.06Z"/>
  </g>
</svg>