<?xml version="1.0" encoding="UTF-8"?>
<svg id="Layer_2" data-name="Layer 2" xmlns="http://www.w3.org/2000/svg" viewBox="0 0 206.92 29.45">
  <defs>
    <style>
      .cls-1 {
        fill: #998634;
      }
    </style>
  </defs>
  <g id="Layer_2-2" data-name="Layer 2">
    <g>
      <rect class="cls-1" x="190.31" y="2.28" width="16.61" height="1.33"/>
      <rect class="cls-1" x="80.37" y="2.28" width="16.61" height="1.33"/>
      <rect class="cls-1" x="118.06" y="2.28" width="22" height="1.33"/>
      <rect class="cls-1" x="19.65" y="27.79" width="18.85" height="1.33"/>
      <path class="cls-1" d="M201.59,13.73h-.02v5.92c0,1.3-1.06,2.36-2.36,2.36h-3.28v2.91h3.28c2.9,0,5.26-2.36,5.26-5.26v-5.68c0-1.33,1.08-2.41,2.41-2.41v-2.91c-2.85,0-5.16,2.26-5.29,5.08Z"/>
      <path class="cls-1" d="M195.92,19.51v-2.91h-2.47v-6.01h-15.27v5.77c0,1.74,1.42,3.15,3.15,3.15h9.21v1.41c0,.6-.49,1.09-1.09,1.09h-14.02v-7.53h-2.91v7.53h-5.81c.1-.35.17-.71.17-1.09v-1.41h2.47v-2.91h-2.47v-6.01h-15.27v5.77c0,1.74,1.42,3.15,3.15,3.15h9.21v1.41c0,.6-.49,1.09-1.09,1.09h-14.68c.37-.72.6-1.52.6-2.39h0v-3.01h-27.62c-.14,0-.25-.11-.25-.25v-3.74h22.55c2.93,0,5.32-2.39,5.32-5.32h-2.91c0,1.33-1.08,2.41-2.41,2.41h-25.45v6.65c0,1.74,1.42,3.15,3.15,3.15h24.71v.08c0,1.33-1.08,2.41-2.41,2.41h-20.14c-2.93,0-5.32,2.38-5.32,5.32h2.91c0-1.33,1.08-2.41,2.41-2.41h20.14c1.19,0,2.27-.4,3.15-1.06v1.06h16.23c1.08,0,2.07-.44,2.79-1.14v1.14h23.78c2.2,0,3.99-1.79,3.99-3.99v-1.41h2.47ZM154.78,16.61c-.14,0-.25-.11-.25-.25v-2.86h9.45v3.11h-9.21ZM181.35,16.61c-.14,0-.25-.11-.25-.25v-2.86h9.45v3.11h-9.21Z"/>
      <path class="cls-1" d="M67.92,20.92c0,.6-.49,1.09-1.09,1.09h-3.85v-7.53h-2.91v2.13h-3.84v-6.01h-15.1v5.77c0,1.74,1.42,3.15,3.15,3.15h9.04v1.57c0,.82-.67,1.49-1.49,1.49h-9.25v2.91h9.25c2.42,0,4.39-1.97,4.39-4.39v-1.57h3.84v5.4h6.76c2.2,0,3.99-1.79,3.99-3.99v-10.33h-2.91v10.33ZM44.29,16.61c-.14,0-.25-.11-.25-.25v-2.86h9.28v3.11h-9.04Z"/>
      <path class="cls-1" d="M183.96,8.57c1,0,1.81-.81,1.81-1.81s-.81-1.81-1.81-1.81-1.81.81-1.81,1.81.81,1.81,1.81,1.81Z"/>
      <circle class="cls-1" cx="176.3" cy="27.64" r="1.81"/>
      <circle class="cls-1" cx="171.5" cy="27.64" r="1.81"/>
      <path class="cls-1" d="M15.25,25.84c-1,0-1.81.81-1.81,1.81s.81,1.81,1.81,1.81,1.81-.81,1.81-1.81-.81-1.81-1.81-1.81Z"/>
      <path class="cls-1" d="M10.45,25.84c-1,0-1.81.81-1.81,1.81s.81,1.81,1.81,1.81,1.81-.81,1.81-1.81-.81-1.81-1.81-1.81Z"/>
      <path class="cls-1" d="M87.63,6.8c0,1,.81,1.81,1.81,1.81s1.81-.81,1.81-1.81-.81-1.81-1.81-1.81-1.81.81-1.81,1.81Z"/>
      <circle class="cls-1" cx="84.63" cy="6.8" r="1.81"/>
      <path class="cls-1" d="M158.34,6.8c0,1,.81,1.81,1.81,1.81s1.81-.81,1.81-1.81-.81-1.81-1.81-1.81-1.81.81-1.81,1.81Z"/>
      <circle class="cls-1" cx="155.35" cy="6.8" r="1.81"/>
      <path class="cls-1" d="M161.36,1.81c0-1-.81-1.81-1.81-1.81s-1.81.81-1.81,1.81c0,.16.02.32.06.47h-7.69v1.33h9.43c1,0,1.81-.81,1.81-1.81Z"/>
      <path class="cls-1" d="M62.83,5c0-1-.81-1.81-1.81-1.81s-1.81.81-1.81,1.81c0,.16.02.32.06.47h-7.69v1.33h9.43c1,0,1.81-.81,1.81-1.81Z"/>
      <circle class="cls-1" cx="69.35" cy="6.8" r="1.81"/>
      <circle class="cls-1" cx="37.04" cy="6.8" r="1.81"/>
      <path class="cls-1" d="M109.65,21.29V5h-6.65c-1.74,0-3.15,1.42-3.15,3.15v13.86h-5.48c0-.08.03-.16.03-.25v-2.24h3.15v-2.91h-3.15v-6.01h-14.59v5.77c0,1.74,1.42,3.15,3.15,3.15h8.52v2.24c0,.14-.11.25-.25.25h-13.53c-.97,0-1.77-.79-1.77-1.77V5h-2.91v15.24c0,2.58,2.1,4.67,4.67,4.67h25.05V8.15c0-.14.11-.25.25-.25h3.74v13.39c0,2.93,2.38,5.32,5.32,5.32v-2.91c-1.33,0-2.41-1.08-2.41-2.41ZM82.97,16.61c-.14,0-.25-.11-.25-.25v-2.86h8.77v3.11h-8.52Z"/>
      <path class="cls-1" d="M35.59,20.92c0,.6-.49,1.09-1.09,1.09h-2.4v-9.97h-5.31c-2.2,0-3.99,1.79-3.99,3.99v5.68H2.91v-2.78c0-1.67,1.36-3.03,3.03-3.03h9.36c2.93,0,5.32-2.38,5.32-5.32h-2.91c0,1.33-1.08,2.41-2.41,2.41H6.01c-3.32,0-6.01,2.69-6.01,6.01v5.62h25.7v-8.59c0-.6.49-1.09,1.09-1.09h2.4v9.97h5.31c2.2,0,3.99-1.79,3.99-3.99v-10.33h-2.91v10.33Z"/>
      <path class="cls-1" d="M16.82,7.92c.59,0,1.11-.24,1.51-.62.39.38.92.62,1.51.62h2.17V3.74h-1.34v2.84h-.84c-.46,0-.84-.38-.84-.84v-2h-1.33v2c0,.46-.38.84-.84.84s-.84-.38-.84-.84v-2h-1.33v2c0,1.2.98,2.17,2.17,2.17Z"/>
    </g>
  </g>
</svg>